<?xml version="1.0" encoding="UTF-8"?>
<!DOCTYPE svg PUBLIC "-//W3C//DTD SVG 1.1//EN" "http://www.w3.org/Graphics/SVG/1.1/DTD/svg11.dtd">
<svg version="1.1" xmlns="http://www.w3.org/2000/svg" xmlns:xlink="http://www.w3.org/1999/xlink"
  x="0" y="0" width="54.5" height="50" viewBox="0, 0, 293, 269">
  <g id="Capa_1">
    <path d="M0.206,183.854 C0,179.343 -0.221,178.062 4.929,179.138 C10.25,180.25 16.202,179.873 19.061,183.84 C18.789,189.004 19.931,194.645 21.21,199.847 C24.338,210.103 28.598,219.642 36.032,226.796 C39.998,232.701 46.781,237.372 52.871,241.064 C61.537,245.219 65.048,246.718 68.9,247.338 C80.702,251.309 93.931,250.37 105.925,246.367 C109.9,245.234 113.744,243.312 117.233,241.258 C122.721,238.854 126.259,235.376 130.254,232.078 C131.191,231.178 132.16,230.157 133.108,229.003 C137.131,224.661 142.422,219.681 143.171,214.103 C143.103,213.524 143.893,211.179 143.825,210.6 C160.498,213.984 161.286,216.013 162.951,215.894 C161.291,217.409 164.419,217.606 163.189,218.957 C162.59,222.51 156.916,226.375 160.94,228.863 C168.288,237.324 174.946,240.735 180.899,244.074 C197.018,250.642 215.69,252.368 231.965,244.897 C237.833,242.76 240.657,241.312 243.21,239.273 C247.808,236.174 250.869,234.613 253.013,231.915 C263.18,221.468 263.606,218.83 265.236,217.045 C266.734,214.819 267.715,212.261 269.007,209.885 C270.388,206.566 271.461,203.241 272.443,199.849 C275.165,190.004 275.417,177.938 272.565,167.857 C271.628,163.627 270.301,159.582 268.299,155.709 C266.349,151.546 264.322,147.073 261,143.807 C258.707,140.051 255.33,136.799 251.954,133.854 C249.787,132.128 247.311,130.369 244.975,128.801 C234.938,122.062 238.312,122.5 240.523,118.621 C248.337,104.912 246.125,106.375 248.835,97.837 C249.993,94.191 246.778,90.18 244.593,87.189 C261.056,71.811 252.7,40.323 235.237,28.457 C228.72,23.24 221.029,20.587 212.956,19.151 C207.501,18.942 202.171,18.79 196.891,20.682 C190.478,22.349 184.471,25.084 179.869,29.762 C175.395,31.913 173.31,35.952 170.953,39.856 C164.061,48.667 161.305,61.866 163.991,72.9 C155.875,75.339 147.766,76.26 140.004,78.926 C147.851,79.25 157.42,76.749 165.951,76.772 C165.445,81.17 168.294,83.991 170.159,87.772 C177.545,100.624 193.178,110.601 209.099,108.777 C208.089,116.922 204.777,124.693 200.138,131.032 C200.176,124.651 190.167,127.95 186.159,124.411 C177.108,120.89 168.628,130.291 162.743,135.629 C157.407,137.151 160.106,144.505 163.841,144.542 C157.353,147.185 150.129,151.239 142.884,152.231 C143.033,149.902 141.659,147.398 140.028,145.783 C134.611,137.48 126.804,130.54 118.796,126.198 C115.947,122.915 109.75,121.375 110.5,119.5 C114.471,112.718 117.84,109.778 118.375,108.625 C137.56,94.19 140.189,93.496 140.781,93.062 C138,99.8 135.938,102.047 135.8,102.2 C128.378,110.4 135,115.562 142.25,120.438 C144.258,122.375 147.324,124.808 149.688,121.375 C157.908,116.079 166.938,109.119 155.731,101.001 C149.397,92.502 149.31,91.966 148.952,90.851 C165.375,86.988 166.014,85.913 158.944,87.006 C146.315,86.752 134.297,89.243 121.956,91.389 C125.625,86.122 127.865,80.909 128.78,75.791 C128.891,70.768 124.14,70.444 116.952,71.129 C112.619,71.189 108.286,71.199 103.952,71.203 C92.279,71.185 80.602,71.207 68.932,71.153 C66.33,70.718 63.77,72.431 62,67.6 C64,61.6 62,54.8 70.954,52.054 C91.954,52.084 112.956,52.153 133.952,52.182 C138.25,52.188 145.75,52.25 145.812,51.75 C146.251,48.239 147.561,43.063 149.021,39.884 C149.851,37.374 151.022,35.27 152.128,32.975 C159.557,19.673 171.984,8.854 186.933,3.76 C199.965,-0.932 214.835,-1.38 227.85,3.25 C239.897,6.853 250.658,14.94 258.92,23.873 C261.308,28.188 261.125,27 261.964,28.849 C275.879,49.219 275.195,78.27 262.847,98.801 C260.811,100.884 260.108,102.772 259.043,103.918 C252.61,106.828 253.791,114.025 260.868,115.947 C262.515,118.102 265.261,118.741 266.883,120.922 C269.746,123.771 272.532,126.842 275,129.826 C279.346,135.187 282.312,141.03 285.826,146.907 C296.218,170.986 296.238,199.612 284.131,222.92 C281.882,227.001 279.16,230.861 276.699,234.683 C273.466,238.762 269.545,243.056 265.779,246.666 C261.903,249.795 258.282,252.876 253.848,255.504 C251.476,256.817 249.336,258.375 246.756,259.407 C241.063,262.407 241.5,262.75 229.5,266.375 C212.375,270.375 218.5,268.25 202.96,268.993 C188.949,266.973 174.924,263.446 162.933,255.889 C159.542,253.279 156.336,251.473 153.277,248.488 C147.799,239.624 140.943,247.726 135.854,252.705 C132.126,254.449 128.772,257.109 124.94,258.826 C109.623,264.273 108.5,265.75 96.125,268.125 C85.488,268.993 85.242,268.321 79.96,268.498 C60.877,265.35 58.955,264.626 57.028,263.643 C48.487,260.077 43.994,258.89 40.117,255.558 C16.595,241.841 1.352,214.526 0.22,186.86 C0.213,185.858 0.251,184.855 0.206,183.854 z" fill="#09010D"/>
    <g>
      <path d="M249.875,98.625 C250.165,103.913 242.935,116.262 242.75,116.5 C226.448,139.695 199.123,156.482 173.38,167.056 C164.542,170.677 161.434,171.869 158.378,173.079 C155.899,173.822 153.793,175.356 151.368,176.126 C137.459,181.762 134.851,181.977 132.524,181.196 C144.325,176.625 150.609,172.821 150.609,172.821 C175.155,157.84 177.566,154.62 180.804,152.698 C183.98,149.741 186.518,147.626 188.841,145.655 C192.445,140.575 197.517,136.791 200.638,131.532 C205.277,125.193 208.589,117.422 209.599,109.277 C209.264,105.698 209.577,101.68 207.613,98.291 C200.922,82.293 183.591,76.361 166.451,77.272 C157.92,77.249 150.625,79.625 140.504,79.426 C148.266,76.76 156.375,75.839 164.491,73.4 C188.836,69.501 216.788,67.297 238.232,80.618 C243.75,85.546 243.918,87.007 245.093,87.689 C247.278,90.68 249.75,93 249.875,98.625 z" fill="#FFF4B8"/>
      <path d="M249.875,98.625 C250.165,103.913 242.935,116.262 242.75,116.5 C226.448,139.695 199.123,156.482 173.38,167.056 C164.542,170.677 161.434,171.869 158.378,173.079 C155.899,173.822 153.793,175.356 151.368,176.126 C137.459,181.762 134.851,181.977 132.524,181.196 C144.325,176.625 150.609,172.821 150.609,172.821 C175.155,157.84 177.566,154.62 180.804,152.698 C183.98,149.741 186.518,147.626 188.841,145.655 C192.445,140.575 197.517,136.791 200.638,131.532 C205.277,125.193 208.589,117.422 209.599,109.277 C209.264,105.698 209.577,101.68 207.613,98.291 C200.922,82.293 183.591,76.361 166.451,77.272 C157.92,77.249 150.625,79.625 140.504,79.426 C148.266,76.76 156.375,75.839 164.491,73.4 C188.836,69.501 216.788,67.297 238.232,80.618 C243.75,85.546 243.918,87.007 245.093,87.689 C247.278,90.68 249.75,93 249.875,98.625 z" fill-opacity="0" stroke="#1C1C1C" stroke-width="1"/>
    </g>
    <path d="M68.824,131.884 C69.144,120.559 78.628,112.522 87.138,106.26 C93.409,101.797 100.491,98.161 107.928,95.721 C112.54,94.114 117.196,92.618 121.956,91.389 C134.297,89.243 149.824,86.621 162.453,86.875 C159.106,88.939 151.4,89.073 148.952,90.851 C145.787,90.756 141.027,91.173 139.767,93.403 C139.617,91.568 136.307,93.14 135.108,93.321 C119.571,93.73 104.583,100.253 92.839,106.468 C90.357,107.734 87.945,109.632 85.88,111.773 C77.706,116.577 72.951,124.706 70.266,133.931 C69.828,133.906 69.391,133.881 68.953,133.856 C69.234,133.177 68.935,132.537 68.824,131.884 z" fill="#E2F2FE"/>
    <path d="M70.266,133.931 C70.266,133.931 75.4,118.8 86.188,111.438 C86.539,111.198 92.562,106.625 92.839,106.468 C104.399,99.917 134.623,88.534 150.16,88.125 C146.969,89.781 137.346,93.831 133,97.8 C126.808,101.144 119.931,105.908 117.369,109.115 C109.875,118.5 107.806,122.476 107.875,122.25 C101.306,133.407 102.337,143.27 105.5,152.483 C111.67,174.671 119.415,180.351 125.6,185.4 C136.4,196.6 131.949,189.863 144.875,201.393 C164.709,214.183 194.847,220.004 194.75,220.849 C194.417,220.858 163.284,215.885 162.951,215.894 C135.961,208.682 131.017,207.296 124.894,203.981 C113.5,197.812 99.655,188.604 99.25,188.5 C84.398,176.2 78.602,167.49 73,160.648 L70,148.4 L70.266,133.931 z" fill="#2945AC"/>
    <path d="M114,164.891 C113,164.206 115.694,163.127 115.875,161.72 C117.727,160.197 121.671,159.668 123.877,158.813 C133.409,156.048 139.356,155.926 142.759,152.981 C150.004,151.989 157.228,147.935 163.716,145.292 C165.509,144.634 167.047,143.383 168.814,142.58 C181.758,133.712 183.254,134.351 183.916,133.088 C193.768,126.212 185.266,135.097 180.55,138.278 C175.373,141.949 170.371,146.318 165.16,149.966 C151.554,153.875 138.036,160.822 121.691,163.792 C120.732,163.972 114.94,165.08 114,164.891 z" fill="#FAE9C3"/>
    <path d="M18.651,145.513 C16.644,144.572 13.784,139.595 12.417,137.528 C30.622,151.383 46.75,156.71 63.49,161.861 C73.332,164.344 73.034,165.438 73.092,166.395 C51.553,164.43 35.057,153.457 18.651,145.513 z" fill="#FDD790"/>
    <path d="M160.801,152.612 C162.294,150.817 164.434,151.466 165.285,149.216 C170.496,145.568 175.498,141.199 180.675,137.528 C174.412,145.587 172.205,146.383 171.953,147.856 C164.529,152.046 163.803,154.249 161.851,154.738 C161.848,154.01 162.383,151.951 160.801,152.612 z" fill="#331500"/>
    <path d="M18.53,148.607 C17.214,147.291 15.23,145.931 15.651,143.513 C32.057,151.457 52.727,162.947 74.266,164.912 C80.172,177.109 90.032,179.374 88.167,182.837 C80.32,180.874 62.427,178.078 54.523,174.805 C51.468,173.571 48.179,171.781 44.982,171.198 C34.34,161.661 34.23,161.942 31.167,160.547 C24.475,153.327 21.917,151.994 18.53,148.607 z" fill="#FCA530"/>
    <path d="M114.6,169.748 C113.778,167.998 111.143,166.769 112.2,164.912 C128.545,161.942 151.679,153.125 165.285,149.216 C164.434,151.466 159.462,152.567 157.969,154.362 C153.162,156.457 150.172,158.896 146.4,161.72 C127.31,169.657 122.415,174.773 119.8,175.235 C118.494,175.729 114.056,170.8 114.6,169.748 z" fill="#F2A034"/>
    <path d="M147.851,160.648 C151.623,157.824 155.994,154.707 160.801,152.612 C162.383,151.951 161.848,154.01 161.851,154.738 C158.343,156.733 154.799,162.658 148.712,161.593 C149.708,160.483 148.282,160.873 147.851,160.648 z" fill="#582A04"/>
    <path d="M130.228,173.063 C129.386,171.941 128.201,170.849 128.4,169.748 C133.004,167.42 143.077,163.265 147.851,160.648 C148.282,160.873 149.708,160.483 148.712,161.593 C149.924,164.047 149.228,164.838 150.125,166.75 C144.249,165.288 136.994,170.242 130.228,173.063 z" fill="#413221"/>
    <path d="M120.6,175.227 C126.652,171.877 127.31,169.657 130.204,169.751 C130.005,170.852 129.386,171.941 130.228,173.063 C126.931,175.055 121.852,175.286 120.6,175.227 z" fill="#3A1500"/>
    <path d="M144.115,201.393 C141.146,198.147 136,199 130.228,190.4 C134.012,192.135 140.217,195.062 144.196,197.441 C144.544,198.701 143.281,200.369 144.115,201.393 z" fill="#566DCA"/>
    <path d="M144.115,201.393 C143.281,200.369 144.544,198.701 144.196,197.441 C145.298,198.363 146.021,199.877 147.774,199.312 C152.929,203.528 160.266,206.791 166.87,209.47 C168.506,211.194 170.869,211.254 172.8,212.296 C175.49,213.688 178.452,214.171 181.121,215.536 C199.5,220.25 198.938,219.969 202.531,221 C196.239,220.405 192.852,220.41 191.023,219.559 C185.974,219.716 181.806,217.165 176.917,216.996 C168.663,213.845 165.825,213.322 163.897,213.343 C157.416,208.969 152.342,205.335 144.115,201.393 z" fill="#97A9D8"/>
    <path d="M163.189,218.957 C164.419,217.606 161.291,217.409 162.951,215.894 C163.284,215.885 163.618,215.877 163.951,215.868 C165.693,216.097 167.365,215.766 169.054,215.395 C169.014,216.71 168.908,218.025 169.02,219.341 C167.091,219.115 165.02,219.523 163.189,218.957 z" fill="#131326"/>
    <path d="M169.02,219.341 C168.908,218.025 169.014,216.71 169.054,215.395 C171.895,215.186 174.521,215.603 176.917,216.996 C177.075,218.281 177.047,219.548 176.953,220.849 C172.167,220.189 169.772,219.505 169.02,219.341 z" fill="#0E1532"/>
    <path d="M176.953,220.849 C177.047,219.548 177.075,218.281 176.917,216.996 C181.806,217.165 185.974,219.716 191.023,219.559 C191.065,220.446 191.143,221.331 191.015,222.221 C181.205,221.272 178.922,221.122 176.953,220.849 z" fill="#131B4A"/>
    <path d="M191.015,222.221 C191.143,221.331 191.065,220.446 191.023,219.559 C192.852,220.41 194.958,220.254 196.917,220.567 C206.75,220.562 203.921,221.604 197,222.341 C194.75,222.221 193.656,222.094 191.015,222.221 z" fill="#2D305F"/>
    <path d="M149.862,168.056 C148.965,166.144 149.626,163.261 148.414,160.807 C154.501,161.872 158.045,155.947 161.553,153.952 C163.505,153.463 164.231,151.26 165.741,152.035 C165.026,154.522 170.17,158.853 168.375,160.648 C163.992,165.031 156.075,168.201 150.109,172.321 C149.354,171.221 149.46,169.154 149.862,168.056 z" fill="#030402"/>
    <path d="M166.947,209.684 C160.343,207.005 153.006,203.742 147.851,199.526 C149.895,196.955 150.699,196.103 150.784,195.03 C152.086,188.945 152.836,180.68 150.945,175.84 C153.37,175.07 155.476,173.536 157.955,172.793 C167.313,168.931 168.71,167.968 169.054,167.998 C170.764,170.545 170.561,174.357 171.332,179.094 C171.312,190.25 170.75,191.625 169.38,198.147 C168.487,204.75 167.876,205.845 166.947,209.684 z" fill="#080004"/>
    <path d="M70,143.513" fill="#2945AC"/>
  </g>
</svg>
